<svg id="svg" version="1.1" xmlns="http://www.w3.org/2000/svg" xmlns:xlink="http://www.w3.org/1999/xlink" width="400" height="400" viewBox="0, 0, 400,400"><g id="svgg"><path id="path0" d="M241.477 48.280 C 240.447 48.547,240.065 49.854,239.783 54.085 C 239.526 57.928,238.287 62.964,237.468 63.496 C 237.211 63.663,226.560 63.890,213.800 64.000 L 190.600 64.200 190.499 165.252 C 190.419 245.423,190.295 266.389,189.899 266.716 C 189.219 267.278,184.775 268.400,183.229 268.400 C 182.539 268.400,181.305 268.683,180.487 269.029 C 179.669 269.375,177.584 269.911,175.854 270.219 C 174.123 270.527,172.503 270.949,172.252 271.156 C 171.849 271.491,165.277 272.400,163.259 272.400 C 161.071 272.400,163.502 268.874,167.809 265.800 C 174.690 260.888,179.586 254.491,179.607 250.385 C 179.611 249.623,179.888 247.380,180.223 245.400 C 180.941 241.156,181.046 228.997,180.409 223.875 C 180.177 222.009,179.812 217.089,179.596 212.941 C 179.381 208.793,179.001 204.140,178.753 202.600 C 178.296 199.769,178.031 178.860,178.400 174.800 L 178.600 172.600 176.925 172.478 C 175.893 172.403,174.510 172.668,173.325 173.168 C 172.266 173.615,170.680 174.158,169.800 174.375 C 167.284 174.996,162.253 176.787,161.827 177.213 C 161.614 177.426,161.108 177.600,160.702 177.600 C 160.296 177.600,159.118 178.050,158.085 178.600 C 157.052 179.150,155.912 179.600,155.552 179.600 C 155.192 179.600,154.674 179.870,154.400 180.200 C 154.126 180.530,153.708 180.800,153.471 180.800 C 152.868 180.800,143.274 185.556,143.008 185.987 C 142.889 186.180,142.272 186.453,141.637 186.592 C 141.002 186.731,140.166 187.195,139.779 187.623 C 139.393 188.050,138.766 188.400,138.387 188.400 C 138.008 188.400,137.451 188.698,137.149 189.062 C 136.847 189.426,136.060 189.973,135.400 190.277 C 134.740 190.581,133.390 191.356,132.400 192.000 C 131.410 192.644,130.060 193.419,129.400 193.723 C 128.740 194.027,127.953 194.574,127.651 194.938 C 127.349 195.302,126.912 195.600,126.680 195.600 C 126.448 195.600,125.075 196.380,123.629 197.334 C 121.277 198.885,120.050 199.677,117.957 200.995 C 117.604 201.218,116.540 201.940,115.593 202.600 C 112.356 204.857,111.100 205.688,109.535 206.609 C 109.170 206.824,106.686 208.485,104.016 210.300 C 101.345 212.115,99.072 213.600,98.963 213.600 C 98.855 213.600,97.826 214.294,96.677 215.143 C 95.528 215.992,94.209 216.807,93.747 216.953 C 93.284 217.100,92.584 217.576,92.191 218.010 C 91.798 218.445,91.262 218.800,91.000 218.800 C 90.738 218.800,90.198 219.160,89.800 219.600 C 89.402 220.040,88.815 220.400,88.496 220.400 C 88.177 220.400,87.381 220.850,86.727 221.400 C 86.073 221.950,85.304 222.400,85.018 222.400 C 84.732 222.400,84.265 222.680,83.981 223.023 C 83.696 223.366,82.909 223.907,82.232 224.226 C 81.554 224.545,80.280 225.243,79.400 225.778 C 78.520 226.313,77.238 227.076,76.552 227.475 C 74.498 228.669,72.297 229.971,70.600 230.998 C 69.720 231.530,68.255 232.319,67.344 232.750 C 66.434 233.181,65.624 233.683,65.544 233.867 C 65.465 234.050,64.770 234.519,64.000 234.908 C 63.230 235.298,61.880 236.053,61.000 236.585 C 60.120 237.117,58.725 237.853,57.900 238.220 C 57.075 238.587,56.400 239.020,56.400 239.183 C 56.400 239.345,55.725 239.776,54.900 240.139 C 54.075 240.503,51.330 242.044,48.800 243.565 C 46.270 245.086,42.895 247.098,41.300 248.036 C 39.705 248.975,38.400 249.876,38.400 250.040 C 38.400 250.203,37.860 250.455,37.200 250.600 C 36.541 250.745,35.776 251.167,35.500 251.538 C 35.225 251.909,34.550 252.443,34.000 252.725 C 32.468 253.512,30.282 254.865,28.224 256.300 C 27.199 257.015,26.220 257.600,26.050 257.600 C 25.879 257.600,25.317 258.050,24.800 258.600 C 24.283 259.150,23.720 259.600,23.548 259.600 C 23.062 259.600,20.205 261.535,17.342 263.804 C 16.650 264.352,15.917 264.800,15.712 264.800 C 15.507 264.800,14.917 265.250,14.400 265.800 C 13.883 266.350,13.320 266.800,13.148 266.800 C 12.977 266.800,12.401 267.205,11.869 267.700 C 11.337 268.195,10.244 269.050,9.441 269.600 C 8.637 270.150,7.489 271.005,6.890 271.500 C 6.290 271.994,5.685 272.399,5.543 272.400 C 4.447 272.402,5.023 277.900,6.404 280.607 C 6.842 281.466,7.201 282.626,7.202 283.185 C 7.204 283.743,7.475 284.719,7.806 285.352 C 8.136 285.986,8.680 287.683,9.014 289.125 C 9.349 290.566,9.777 291.937,9.966 292.172 C 10.155 292.408,10.438 293.410,10.595 294.400 C 10.751 295.390,11.222 296.988,11.640 297.951 C 12.058 298.914,12.400 300.140,12.400 300.677 C 12.400 301.213,12.760 302.495,13.199 303.526 C 13.639 304.557,14.165 306.210,14.369 307.200 C 14.573 308.190,15.015 309.720,15.352 310.600 C 15.689 311.480,15.973 312.612,15.982 313.116 C 15.992 313.620,16.360 314.738,16.800 315.600 C 17.240 316.462,17.600 317.631,17.600 318.196 C 17.600 318.762,18.050 320.293,18.600 321.600 C 19.150 322.907,19.600 324.455,19.600 325.041 C 19.600 325.626,19.937 326.667,20.349 327.353 C 20.761 328.039,21.207 329.320,21.339 330.200 C 21.472 331.080,21.945 332.513,22.390 333.385 C 22.836 334.256,23.200 335.429,23.200 335.991 C 23.200 336.552,23.534 337.639,23.941 338.406 C 24.349 339.173,24.801 340.440,24.945 341.222 C 25.089 342.005,25.566 343.348,26.004 344.207 C 26.442 345.066,26.801 346.136,26.803 346.585 C 26.804 347.033,27.163 347.940,27.600 348.600 C 28.037 349.260,28.396 350.202,28.397 350.692 C 28.403 352.600,33.415 352.212,40.800 349.732 C 41.790 349.400,43.680 348.903,45.000 348.629 C 46.320 348.355,47.976 347.831,48.680 347.465 C 49.384 347.099,50.464 346.799,51.080 346.798 C 51.696 346.796,52.740 346.513,53.400 346.168 C 54.060 345.823,55.500 345.292,56.600 344.989 C 57.700 344.685,59.320 344.166,60.200 343.836 C 61.080 343.505,62.163 343.227,62.606 343.218 C 63.049 343.208,64.084 342.840,64.904 342.400 C 65.725 341.960,66.846 341.600,67.394 341.600 C 67.943 341.600,69.338 341.229,70.496 340.777 C 71.653 340.324,73.590 339.787,74.800 339.583 C 76.010 339.380,77.981 338.941,79.179 338.609 C 84.124 337.237,95.909 337.470,97.570 338.973 C 97.951 339.318,98.650 339.600,99.123 339.600 C 99.595 339.600,101.021 340.080,102.291 340.666 C 108.694 343.622,110.907 344.347,115.600 345.023 C 120.478 345.727,124.539 345.725,128.800 345.019 C 133.562 344.231,136.349 343.197,146.006 338.641 C 147.219 338.068,148.412 337.600,148.657 337.600 C 148.902 337.600,149.311 337.348,149.567 337.039 C 149.823 336.731,150.506 336.360,151.085 336.214 C 151.663 336.069,152.580 335.602,153.122 335.175 C 153.664 334.749,154.410 334.400,154.779 334.400 C 155.147 334.400,155.813 334.061,156.258 333.646 C 156.703 333.232,157.682 332.758,158.433 332.594 C 159.185 332.430,160.229 331.959,160.754 331.548 C 161.279 331.137,161.999 330.794,162.354 330.787 C 162.709 330.781,163.900 330.332,165.000 329.791 C 166.100 329.250,167.226 328.806,167.501 328.804 C 167.777 328.802,168.675 328.440,169.496 328.000 C 170.316 327.560,171.241 327.200,171.550 327.200 C 171.859 327.200,172.852 326.865,173.756 326.456 C 175.396 325.713,176.596 325.259,180.000 324.096 C 180.990 323.757,182.540 323.147,183.444 322.740 C 184.348 322.333,185.345 322.000,185.659 322.000 C 185.974 322.000,186.916 321.650,187.754 321.223 C 188.592 320.796,189.846 320.322,190.539 320.170 C 191.233 320.018,192.427 319.557,193.194 319.147 C 193.961 318.736,194.953 318.400,195.400 318.400 C 195.847 318.400,196.878 318.043,197.691 317.607 C 198.505 317.171,199.908 316.696,200.808 316.552 C 201.709 316.408,203.104 315.955,203.907 315.545 C 204.711 315.135,205.876 314.800,206.495 314.800 C 207.114 314.800,208.618 314.449,209.839 314.020 C 211.059 313.591,212.899 313.130,213.929 312.996 C 214.958 312.861,216.520 312.499,217.400 312.191 C 218.280 311.883,220.440 311.454,222.200 311.236 C 223.960 311.019,226.188 310.562,227.150 310.221 C 228.113 309.879,229.464 309.600,230.153 309.600 C 230.842 309.600,233.024 309.152,235.003 308.605 C 236.981 308.058,239.253 307.608,240.051 307.605 C 240.849 307.602,242.139 307.334,242.917 307.009 C 243.695 306.684,245.652 306.214,247.266 305.965 C 248.880 305.716,250.650 305.283,251.200 305.003 C 251.750 304.723,253.009 304.360,253.998 304.196 C 254.987 304.031,256.424 303.560,257.192 303.148 C 257.960 302.737,259.041 302.399,259.594 302.399 C 260.147 302.398,261.155 302.059,261.833 301.645 C 262.512 301.231,263.682 300.759,264.433 300.594 C 265.185 300.430,266.229 299.959,266.754 299.548 C 267.279 299.137,267.909 298.797,268.154 298.793 C 268.858 298.781,271.896 296.601,273.539 294.927 C 277.358 291.038,279.537 282.223,278.281 275.747 C 277.946 274.016,277.554 271.905,277.410 271.057 C 276.349 264.812,270.407 256.603,264.829 253.680 C 261.365 251.864,246.671 251.481,244.654 253.155 C 244.374 253.388,242.966 253.851,241.525 254.186 C 240.083 254.520,238.386 255.064,237.752 255.394 C 237.119 255.725,236.350 255.996,236.044 255.998 C 235.738 255.999,234.748 256.333,233.844 256.740 C 231.795 257.663,228.699 258.746,226.600 259.274 C 225.720 259.495,224.470 259.941,223.821 260.265 C 221.529 261.409,213.335 261.967,211.640 261.094 L 210.681 260.600 210.507 190.800 C 210.383 141.117,210.468 118.176,210.800 111.200 C 211.057 105.810,211.362 97.620,211.479 93.000 C 211.597 88.286,211.867 84.381,212.094 84.100 C 212.606 83.466,324.112 83.358,325.774 83.990 L 326.800 84.380 326.800 203.416 C 326.800 278.856,326.659 322.716,326.415 323.171 C 325.477 324.925,324.518 325.000,303.000 325.000 C 286.945 325.000,280.939 324.853,274.800 324.309 C 267.370 323.650,251.659 322.930,235.600 322.511 C 231.470 322.404,225.372 322.534,221.800 322.807 C 218.280 323.075,213.510 323.428,211.200 323.590 C 208.890 323.753,206.212 324.181,205.250 324.543 C 204.287 324.904,203.191 325.200,202.814 325.200 C 201.922 325.200,197.423 327.450,196.790 328.212 C 196.522 328.535,196.099 328.802,195.851 328.805 C 195.159 328.813,192.125 331.774,191.818 332.742 C 191.669 333.214,191.387 333.600,191.192 333.600 C 190.133 333.600,189.584 340.687,190.451 343.173 L 190.901 344.466 252.551 344.365 C 323.578 344.248,340.216 344.580,353.800 346.384 C 355.869 346.658,356.717 346.631,357.047 346.278 C 357.753 345.522,359.197 339.062,359.229 336.514 C 359.260 334.113,359.475 332.539,360.557 326.800 C 360.910 324.930,361.199 322.394,361.199 321.164 C 361.200 319.934,361.466 318.044,361.792 316.964 C 362.118 315.884,362.577 312.750,362.812 310.000 C 363.047 307.250,363.482 304.010,363.778 302.800 C 364.075 301.590,364.432 299.101,364.571 297.269 C 364.710 295.436,365.179 292.138,365.612 289.939 C 366.045 287.740,366.400 285.038,366.400 283.933 C 366.400 282.829,366.746 280.187,367.168 278.063 C 367.590 275.938,368.048 272.670,368.185 270.800 C 368.322 268.930,368.691 266.230,369.006 264.800 C 369.320 263.370,369.760 260.254,369.984 257.875 C 370.208 255.496,370.644 252.526,370.954 251.275 C 371.263 250.024,371.620 247.290,371.747 245.200 C 371.874 243.110,372.249 240.372,372.580 239.116 C 372.911 237.859,373.294 235.069,373.432 232.916 C 373.570 230.762,374.024 227.580,374.441 225.845 C 374.859 224.110,375.215 221.680,375.234 220.445 C 375.270 218.002,375.699 214.827,376.374 212.000 C 376.610 211.010,376.976 207.996,377.186 205.302 C 377.397 202.609,377.755 200.058,377.982 199.635 C 378.208 199.211,378.584 196.645,378.817 193.932 C 379.049 191.219,379.481 187.920,379.775 186.600 C 380.069 185.280,380.434 182.670,380.586 180.800 C 380.738 178.930,381.208 175.632,381.631 173.471 C 382.054 171.309,382.400 168.584,382.400 167.415 C 382.400 166.245,382.743 163.603,383.163 161.544 C 383.583 159.485,384.049 156.180,384.199 154.200 C 384.349 152.220,384.718 149.610,385.019 148.400 C 385.320 147.190,385.751 143.950,385.976 141.200 C 386.201 138.450,386.581 135.570,386.820 134.800 C 387.059 134.030,387.417 131.377,387.615 128.905 C 387.814 126.432,388.244 123.372,388.573 122.105 C 388.901 120.837,389.285 118.000,389.426 115.800 C 389.567 113.600,390.024 110.380,390.441 108.645 C 390.859 106.910,391.206 104.570,391.213 103.445 C 391.229 100.973,391.746 97.180,392.581 93.400 C 392.921 91.860,393.208 89.520,393.217 88.200 C 393.227 86.880,393.408 84.990,393.619 84.000 C 395.120 76.956,395.849 68.771,395.028 68.171 C 394.690 67.924,392.115 67.610,389.307 67.473 C 386.498 67.337,383.210 66.948,382.000 66.610 C 380.790 66.271,377.820 65.883,375.400 65.747 C 372.980 65.612,370.010 65.249,368.800 64.941 C 367.590 64.633,364.260 64.199,361.400 63.976 C 358.540 63.753,355.660 63.388,355.000 63.165 C 354.340 62.942,351.730 62.580,349.200 62.359 C 346.670 62.139,343.340 61.685,341.800 61.351 C 340.260 61.016,337.020 60.594,334.600 60.412 C 332.180 60.230,329.210 59.807,328.000 59.472 C 326.790 59.137,324.090 58.746,322.000 58.603 C 319.910 58.461,316.850 58.016,315.200 57.615 C 313.550 57.214,310.474 56.783,308.366 56.658 C 306.257 56.532,304.027 56.239,303.412 56.004 C 302.796 55.770,299.741 55.322,296.624 55.009 C 293.506 54.696,290.508 54.269,289.960 54.061 C 289.413 53.853,286.633 53.474,283.782 53.220 C 280.932 52.966,277.610 52.516,276.400 52.220 C 275.190 51.925,272.490 51.582,270.400 51.458 C 268.310 51.334,265.284 50.956,263.676 50.617 C 262.068 50.278,258.918 49.893,256.676 49.760 C 254.434 49.628,250.862 49.178,248.737 48.760 C 244.996 48.024,242.980 47.891,241.477 48.280 M353.200 83.237 C 353.970 83.434,355.684 83.597,357.009 83.598 C 358.334 83.599,361.574 84.049,364.209 84.597 C 366.844 85.145,369.563 85.595,370.251 85.597 C 372.239 85.602,372.599 86.375,372.073 89.515 C 371.826 90.992,371.528 94.035,371.411 96.277 C 371.294 98.520,370.938 101.490,370.620 102.877 C 370.301 104.265,369.856 107.830,369.630 110.800 C 369.404 113.770,369.027 116.830,368.792 117.600 C 368.557 118.370,368.196 121.160,367.989 123.800 C 367.783 126.440,367.352 129.950,367.032 131.600 C 366.712 133.250,366.258 136.670,366.023 139.200 C 365.788 141.730,365.328 144.790,365.002 146.000 C 364.676 147.210,364.407 149.370,364.404 150.800 C 364.400 152.230,364.055 155.200,363.635 157.400 C 363.216 159.600,362.752 162.930,362.603 164.800 C 362.455 166.670,362.081 169.206,361.773 170.434 C 361.464 171.663,361.021 174.868,360.788 177.557 C 360.554 180.245,360.190 182.899,359.979 183.455 C 359.768 184.011,359.410 186.596,359.184 189.201 C 358.958 191.806,358.509 194.948,358.187 196.184 C 357.866 197.419,357.501 199.998,357.378 201.915 C 357.255 203.832,356.818 206.930,356.408 208.800 C 355.998 210.670,355.550 213.925,355.412 216.034 C 355.274 218.143,354.895 220.753,354.569 221.834 C 354.244 222.915,353.884 225.420,353.769 227.400 C 353.654 229.380,353.217 232.620,352.799 234.600 C 352.380 236.580,351.857 240.090,351.636 242.400 C 351.415 244.710,351.054 247.500,350.834 248.600 C 350.615 249.700,350.241 252.646,350.003 255.148 C 349.766 257.649,349.329 260.169,349.033 260.748 C 348.736 261.326,348.366 262.745,348.209 263.900 C 347.679 267.815,347.288 266.025,346.944 258.100 C 346.443 246.585,346.676 84.178,347.195 83.209 C 347.634 82.390,349.937 82.401,353.200 83.237 M262.599 151.175 C 261.059 151.354,258.937 151.793,257.885 152.150 C 256.833 152.508,255.358 152.800,254.607 152.800 C 253.857 152.800,252.396 153.250,251.362 153.800 C 250.327 154.350,249.103 154.804,248.640 154.809 C 248.178 154.814,247.350 155.170,246.800 155.600 C 246.250 156.030,245.520 156.386,245.178 156.391 C 244.835 156.396,243.945 156.850,243.200 157.400 C 242.455 157.950,241.681 158.400,241.480 158.400 C 241.280 158.400,240.602 158.805,239.974 159.300 C 239.346 159.795,237.700 161.093,236.316 162.184 C 234.082 163.945,231.957 166.167,230.178 168.600 C 229.856 169.040,229.145 169.966,228.596 170.658 C 228.048 171.350,227.600 172.080,227.600 172.280 C 227.600 172.481,227.150 173.255,226.600 174.000 C 226.050 174.745,225.600 175.668,225.600 176.049 C 225.600 176.431,225.335 177.008,225.010 177.332 C 224.686 177.657,224.237 178.741,224.013 179.742 C 223.789 180.743,223.343 182.156,223.023 182.881 C 222.296 184.528,220.797 195.076,220.808 198.470 C 220.827 204.542,223.379 216.724,225.085 218.887 C 225.308 219.169,225.605 219.882,225.745 220.472 C 225.886 221.062,226.243 221.786,226.539 222.082 C 226.835 222.378,227.395 223.290,227.784 224.110 C 228.173 224.929,228.651 225.600,228.846 225.600 C 229.041 225.600,229.200 225.869,229.200 226.197 C 229.200 226.744,235.706 233.528,238.018 235.392 C 239.215 236.358,240.903 237.344,242.900 238.245 C 243.725 238.617,244.400 239.060,244.400 239.230 C 244.400 239.399,245.075 239.752,245.900 240.014 C 246.725 240.275,247.834 240.762,248.364 241.095 C 248.893 241.429,250.243 241.930,251.364 242.210 C 252.484 242.490,253.940 242.903,254.600 243.129 C 260.401 245.117,276.174 245.114,281.800 243.124 C 282.460 242.891,284.100 242.407,285.444 242.050 C 286.789 241.692,288.139 241.200,288.444 240.955 C 288.750 240.710,289.526 240.384,290.168 240.230 C 290.811 240.076,291.780 239.602,292.322 239.175 C 292.864 238.749,293.616 238.400,293.992 238.400 C 294.368 238.400,294.998 238.045,295.391 237.610 C 295.784 237.176,296.487 236.703,296.953 236.560 C 299.246 235.855,309.600 225.443,309.600 223.841 C 309.600 223.557,309.944 223.013,310.364 222.633 C 310.784 222.252,311.243 221.483,311.384 220.922 C 311.524 220.362,311.900 219.643,312.219 219.324 C 312.538 219.005,312.901 218.262,313.027 217.672 C 313.152 217.082,313.585 215.880,313.989 215.000 C 314.393 214.120,314.853 212.592,315.013 211.605 C 315.172 210.618,315.560 209.088,315.876 208.205 C 316.705 205.884,316.706 190.707,315.877 188.723 C 315.555 187.952,315.166 186.350,315.012 185.161 C 314.858 183.972,314.388 182.319,313.966 181.488 C 313.545 180.656,313.199 179.666,313.198 179.288 C 313.197 178.909,312.752 177.880,312.210 177.000 C 311.668 176.120,311.219 175.178,311.212 174.908 C 311.206 174.637,310.525 173.398,309.700 172.154 C 308.875 170.910,308.020 169.602,307.800 169.248 C 307.095 168.113,303.434 163.844,302.400 162.951 C 301.850 162.476,300.911 161.632,300.313 161.075 C 299.715 160.518,298.860 159.946,298.413 159.804 C 297.966 159.662,297.600 159.419,297.600 159.264 C 297.600 159.109,296.970 158.643,296.200 158.228 C 295.430 157.813,294.800 157.342,294.800 157.180 C 294.800 157.019,294.319 156.766,293.732 156.619 C 293.144 156.471,292.220 156.002,291.678 155.575 C 291.136 155.149,290.400 154.800,290.043 154.800 C 289.686 154.800,288.548 154.350,287.515 153.800 C 286.482 153.250,285.127 152.800,284.504 152.800 C 283.882 152.800,282.355 152.443,281.113 152.006 C 278.515 151.093,267.545 150.601,262.599 151.175 M287.000 180.990 C 289.727 182.332,294.185 186.588,295.062 188.686 C 296.121 191.221,297.525 192.400,299.486 192.400 C 303.358 192.400,304.000 193.318,304.000 198.859 C 304.000 203.914,303.758 204.400,301.244 204.400 C 299.743 204.400,299.078 204.621,298.238 205.400 C 297.644 205.950,297.008 206.400,296.824 206.400 C 296.641 206.400,295.465 207.669,294.211 209.220 C 289.057 215.600,283.447 218.590,281.077 216.219 C 278.901 214.044,280.436 205.866,283.239 204.692 C 286.452 203.346,289.040 198.784,287.250 197.620 C 287.064 197.499,286.621 196.860,286.265 196.200 C 283.069 190.267,278.586 190.926,275.559 197.774 C 275.358 198.228,274.655 199.500,273.996 200.600 C 273.338 201.700,272.439 203.320,271.998 204.200 C 270.887 206.421,269.672 208.385,268.982 209.075 C 268.662 209.395,268.400 209.881,268.400 210.154 C 268.400 210.428,267.049 211.933,265.398 213.498 C 260.342 218.292,255.034 218.915,249.063 215.416 C 246.190 213.732,243.136 210.401,241.897 207.600 C 240.658 204.797,240.155 204.400,237.838 204.399 C 236.513 204.398,235.345 204.120,234.500 203.604 L 233.200 202.812 233.200 198.597 L 233.200 194.383 234.300 193.930 C 234.905 193.680,236.132 193.144,237.026 192.738 C 237.921 192.332,238.809 192.000,239.000 192.000 C 239.191 192.000,241.429 189.906,243.974 187.347 C 249.775 181.512,249.304 181.874,252.474 180.831 C 257.137 179.298,258.347 180.934,257.714 187.915 L 257.496 190.324 254.948 191.566 C 253.547 192.249,252.400 192.994,252.400 193.220 C 252.400 193.447,252.005 194.167,251.522 194.819 C 248.080 199.475,252.038 205.613,257.872 204.666 C 260.082 204.307,263.200 200.068,263.200 197.421 C 263.200 196.952,263.560 195.863,264.000 195.000 C 264.440 194.137,264.802 193.154,264.804 192.815 C 264.806 192.477,265.250 191.300,265.791 190.200 C 266.332 189.100,266.781 188.048,266.787 187.863 C 266.805 187.381,268.347 185.417,270.153 183.575 C 274.090 179.559,281.715 178.390,287.000 180.990 " stroke="none" fill="#050505" fill-rule="evenodd"></path><path id="path1" d="M0.000 200.000 L 0.000 400.000 200.000 400.000 L 400.000 400.000 400.000 200.000 L 400.000 0.000 200.000 0.000 L 0.000 0.000 0.000 200.000 M248.737 48.760 C 250.862 49.178,254.434 49.628,256.676 49.760 C 258.918 49.893,262.068 50.278,263.676 50.617 C 265.284 50.956,268.310 51.334,270.400 51.458 C 272.490 51.582,275.190 51.925,276.400 52.220 C 277.610 52.516,280.932 52.966,283.782 53.220 C 286.633 53.474,289.413 53.853,289.960 54.061 C 290.508 54.269,293.506 54.696,296.624 55.009 C 299.741 55.322,302.796 55.770,303.412 56.004 C 304.027 56.239,306.257 56.532,308.366 56.658 C 310.474 56.783,313.550 57.214,315.200 57.615 C 316.850 58.016,319.910 58.461,322.000 58.603 C 324.090 58.746,326.790 59.137,328.000 59.472 C 329.210 59.807,332.180 60.230,334.600 60.412 C 337.020 60.594,340.260 61.016,341.800 61.351 C 343.340 61.685,346.670 62.139,349.200 62.359 C 351.730 62.580,354.340 62.942,355.000 63.165 C 355.660 63.388,358.540 63.753,361.400 63.976 C 364.260 64.199,367.590 64.633,368.800 64.941 C 370.010 65.249,372.980 65.612,375.400 65.747 C 377.820 65.883,380.790 66.271,382.000 66.610 C 383.210 66.948,386.498 67.337,389.307 67.473 C 392.115 67.610,394.690 67.924,395.028 68.171 C 395.849 68.771,395.120 76.956,393.619 84.000 C 393.408 84.990,393.227 86.880,393.217 88.200 C 393.208 89.520,392.921 91.860,392.581 93.400 C 391.746 97.180,391.229 100.973,391.213 103.445 C 391.206 104.570,390.859 106.910,390.441 108.645 C 390.024 110.380,389.567 113.600,389.426 115.800 C 389.285 118.000,388.901 120.837,388.573 122.105 C 388.244 123.372,387.814 126.432,387.615 128.905 C 387.417 131.377,387.059 134.030,386.820 134.800 C 386.581 135.570,386.201 138.450,385.976 141.200 C 385.751 143.950,385.320 147.190,385.019 148.400 C 384.718 149.610,384.349 152.220,384.199 154.200 C 384.049 156.180,383.583 159.485,383.163 161.544 C 382.743 163.603,382.400 166.245,382.400 167.415 C 382.400 168.584,382.054 171.309,381.631 173.471 C 381.208 175.632,380.738 178.930,380.586 180.800 C 380.434 182.670,380.069 185.280,379.775 186.600 C 379.481 187.920,379.049 191.219,378.817 193.932 C 378.584 196.645,378.208 199.211,377.982 199.635 C 377.755 200.058,377.397 202.609,377.186 205.302 C 376.976 207.996,376.610 211.010,376.374 212.000 C 375.699 214.827,375.270 218.002,375.234 220.445 C 375.215 221.680,374.859 224.110,374.441 225.845 C 374.024 227.580,373.570 230.762,373.432 232.916 C 373.294 235.069,372.911 237.859,372.580 239.116 C 372.249 240.372,371.874 243.110,371.747 245.200 C 371.620 247.290,371.263 250.024,370.954 251.275 C 370.644 252.526,370.208 255.496,369.984 257.875 C 369.760 260.254,369.320 263.370,369.006 264.800 C 368.691 266.230,368.322 268.930,368.185 270.800 C 368.048 272.670,367.590 275.938,367.168 278.063 C 366.746 280.187,366.400 282.829,366.400 283.933 C 366.400 285.038,366.045 287.740,365.612 289.939 C 365.179 292.138,364.710 295.436,364.571 297.269 C 364.432 299.101,364.075 301.590,363.778 302.800 C 363.482 304.010,363.047 307.250,362.812 310.000 C 362.577 312.750,362.118 315.884,361.792 316.964 C 361.466 318.044,361.200 319.934,361.199 321.164 C 361.199 322.394,360.910 324.930,360.557 326.800 C 359.475 332.539,359.260 334.113,359.229 336.514 C 359.197 339.062,357.753 345.522,357.047 346.278 C 356.717 346.631,355.869 346.658,353.800 346.384 C 340.216 344.580,323.578 344.248,252.551 344.365 L 190.901 344.466 190.451 343.173 C 189.584 340.687,190.133 333.600,191.192 333.600 C 191.387 333.600,191.669 333.214,191.818 332.742 C 192.125 331.774,195.159 328.813,195.851 328.805 C 196.099 328.802,196.522 328.535,196.790 328.212 C 197.423 327.450,201.922 325.200,202.814 325.200 C 203.191 325.200,204.287 324.904,205.250 324.543 C 206.212 324.181,208.890 323.753,211.200 323.590 C 213.510 323.428,218.280 323.075,221.800 322.807 C 225.372 322.534,231.470 322.404,235.600 322.511 C 251.659 322.930,267.370 323.650,274.800 324.309 C 280.939 324.853,286.945 325.000,303.000 325.000 C 324.518 325.000,325.477 324.925,326.415 323.171 C 326.659 322.716,326.800 278.856,326.800 203.416 L 326.800 84.380 325.774 83.990 C 324.112 83.358,212.606 83.466,212.094 84.100 C 211.867 84.381,211.597 88.286,211.479 93.000 C 211.362 97.620,211.057 105.810,210.800 111.200 C 210.468 118.176,210.383 141.117,210.507 190.800 L 210.681 260.600 211.640 261.094 C 213.335 261.967,221.529 261.409,223.821 260.265 C 224.470 259.941,225.720 259.495,226.600 259.274 C 228.699 258.746,231.795 257.663,233.844 256.740 C 234.748 256.333,235.738 255.999,236.044 255.998 C 236.350 255.996,237.119 255.725,237.752 255.394 C 238.386 255.064,240.083 254.520,241.525 254.186 C 242.966 253.851,244.374 253.388,244.654 253.155 C 246.671 251.481,261.365 251.864,264.829 253.680 C 270.407 256.603,276.349 264.812,277.410 271.057 C 277.554 271.905,277.946 274.016,278.281 275.747 C 279.537 282.223,277.358 291.038,273.539 294.927 C 271.896 296.601,268.858 298.781,268.154 298.793 C 267.909 298.797,267.279 299.137,266.754 299.548 C 266.229 299.959,265.185 300.430,264.433 300.594 C 263.682 300.759,262.512 301.231,261.833 301.645 C 261.155 302.059,260.147 302.398,259.594 302.399 C 259.041 302.399,257.960 302.737,257.192 303.148 C 256.424 303.560,254.987 304.031,253.998 304.196 C 253.009 304.360,251.750 304.723,251.200 305.003 C 250.650 305.283,248.880 305.716,247.266 305.965 C 245.652 306.214,243.695 306.684,242.917 307.009 C 242.139 307.334,240.849 307.602,240.051 307.605 C 239.253 307.608,236.981 308.058,235.003 308.605 C 233.024 309.152,230.842 309.600,230.153 309.600 C 229.464 309.600,228.113 309.879,227.150 310.221 C 226.188 310.562,223.960 311.019,222.200 311.236 C 220.440 311.454,218.280 311.883,217.400 312.191 C 216.520 312.499,214.958 312.861,213.929 312.996 C 212.899 313.130,211.059 313.591,209.839 314.020 C 208.618 314.449,207.114 314.800,206.495 314.800 C 205.876 314.800,204.711 315.135,203.907 315.545 C 203.104 315.955,201.709 316.408,200.808 316.552 C 199.908 316.696,198.505 317.171,197.691 317.607 C 196.878 318.043,195.847 318.400,195.400 318.400 C 194.953 318.400,193.961 318.736,193.194 319.147 C 192.427 319.557,191.233 320.018,190.539 320.170 C 189.846 320.322,188.592 320.796,187.754 321.223 C 186.916 321.650,185.974 322.000,185.659 322.000 C 185.345 322.000,184.348 322.333,183.444 322.740 C 182.540 323.147,180.990 323.757,180.000 324.096 C 176.596 325.259,175.396 325.713,173.756 326.456 C 172.852 326.865,171.859 327.200,171.550 327.200 C 171.241 327.200,170.316 327.560,169.496 328.000 C 168.675 328.440,167.777 328.802,167.501 328.804 C 167.226 328.806,166.100 329.250,165.000 329.791 C 163.900 330.332,162.709 330.781,162.354 330.787 C 161.999 330.794,161.279 331.137,160.754 331.548 C 160.229 331.959,159.185 332.430,158.433 332.594 C 157.682 332.758,156.703 333.232,156.258 333.646 C 155.813 334.061,155.147 334.400,154.779 334.400 C 154.410 334.400,153.664 334.749,153.122 335.175 C 152.580 335.602,151.663 336.069,151.085 336.214 C 150.506 336.360,149.823 336.731,149.567 337.039 C 149.311 337.348,148.902 337.600,148.657 337.600 C 148.412 337.600,147.219 338.068,146.006 338.641 C 136.349 343.197,133.562 344.231,128.800 345.019 C 124.539 345.725,120.478 345.727,115.600 345.023 C 110.907 344.347,108.694 343.622,102.291 340.666 C 101.021 340.080,99.595 339.600,99.123 339.600 C 98.650 339.600,97.951 339.318,97.570 338.973 C 95.909 337.470,84.124 337.237,79.179 338.609 C 77.981 338.941,76.010 339.380,74.800 339.583 C 73.590 339.787,71.653 340.324,70.496 340.777 C 69.338 341.229,67.943 341.600,67.394 341.600 C 66.846 341.600,65.725 341.960,64.904 342.400 C 64.084 342.840,63.049 343.208,62.606 343.218 C 62.163 343.227,61.080 343.505,60.200 343.836 C 59.320 344.166,57.700 344.685,56.600 344.989 C 55.500 345.292,54.060 345.823,53.400 346.168 C 52.740 346.513,51.696 346.796,51.080 346.798 C 50.464 346.799,49.384 347.099,48.680 347.465 C 47.976 347.831,46.320 348.355,45.000 348.629 C 43.680 348.903,41.790 349.400,40.800 349.732 C 33.415 352.212,28.403 352.600,28.397 350.692 C 28.396 350.202,28.037 349.260,27.600 348.600 C 27.163 347.940,26.804 347.033,26.803 346.585 C 26.801 346.136,26.442 345.066,26.004 344.207 C 25.566 343.348,25.089 342.005,24.945 341.222 C 24.801 340.440,24.349 339.173,23.941 338.406 C 23.534 337.639,23.200 336.552,23.200 335.991 C 23.200 335.429,22.836 334.256,22.390 333.385 C 21.945 332.513,21.472 331.080,21.339 330.200 C 21.207 329.320,20.761 328.039,20.349 327.353 C 19.937 326.667,19.600 325.626,19.600 325.041 C 19.600 324.455,19.150 322.907,18.600 321.600 C 18.050 320.293,17.600 318.762,17.600 318.196 C 17.600 317.631,17.240 316.462,16.800 315.600 C 16.360 314.738,15.992 313.620,15.982 313.116 C 15.973 312.612,15.689 311.480,15.352 310.600 C 15.015 309.720,14.573 308.190,14.369 307.200 C 14.165 306.210,13.639 304.557,13.199 303.526 C 12.760 302.495,12.400 301.213,12.400 300.677 C 12.400 300.140,12.058 298.914,11.640 297.951 C 11.222 296.988,10.751 295.390,10.595 294.400 C 10.438 293.410,10.155 292.408,9.966 292.172 C 9.777 291.937,9.349 290.566,9.014 289.125 C 8.680 287.683,8.136 285.986,7.806 285.352 C 7.475 284.719,7.204 283.743,7.202 283.185 C 7.201 282.626,6.842 281.466,6.404 280.607 C 5.023 277.900,4.447 272.402,5.543 272.400 C 5.685 272.399,6.290 271.994,6.890 271.500 C 7.489 271.005,8.637 270.150,9.441 269.600 C 10.244 269.050,11.337 268.195,11.869 267.700 C 12.401 267.205,12.977 266.800,13.148 266.800 C 13.320 266.800,13.883 266.350,14.400 265.800 C 14.917 265.250,15.507 264.800,15.712 264.800 C 15.917 264.800,16.650 264.352,17.342 263.804 C 20.205 261.535,23.062 259.600,23.548 259.600 C 23.720 259.600,24.283 259.150,24.800 258.600 C 25.317 258.050,25.879 257.600,26.050 257.600 C 26.220 257.600,27.199 257.015,28.224 256.300 C 30.282 254.865,32.468 253.512,34.000 252.725 C 34.550 252.443,35.225 251.909,35.500 251.538 C 35.776 251.167,36.541 250.745,37.200 250.600 C 37.860 250.455,38.400 250.203,38.400 250.040 C 38.400 249.876,39.705 248.975,41.300 248.036 C 42.895 247.098,46.270 245.086,48.800 243.565 C 51.330 242.044,54.075 240.503,54.900 240.139 C 55.725 239.776,56.400 239.345,56.400 239.183 C 56.400 239.020,57.075 238.587,57.900 238.220 C 58.725 237.853,60.120 237.117,61.000 236.585 C 61.880 236.053,63.230 235.298,64.000 234.908 C 64.770 234.519,65.465 234.050,65.544 233.867 C 65.624 233.683,66.434 233.181,67.344 232.750 C 68.255 232.319,69.720 231.530,70.600 230.998 C 72.297 229.971,74.498 228.669,76.552 227.475 C 77.238 227.076,78.520 226.313,79.400 225.778 C 80.280 225.243,81.554 224.545,82.232 224.226 C 82.909 223.907,83.696 223.366,83.981 223.023 C 84.265 222.680,84.732 222.400,85.018 222.400 C 85.304 222.400,86.073 221.950,86.727 221.400 C 87.381 220.850,88.177 220.400,88.496 220.400 C 88.815 220.400,89.402 220.040,89.800 219.600 C 90.198 219.160,90.738 218.800,91.000 218.800 C 91.262 218.800,91.798 218.445,92.191 218.010 C 92.584 217.576,93.284 217.100,93.747 216.953 C 94.209 216.807,95.528 215.992,96.677 215.143 C 97.826 214.294,98.855 213.600,98.963 213.600 C 99.072 213.600,101.345 212.115,104.016 210.300 C 106.686 208.485,109.170 206.824,109.535 206.609 C 111.100 205.688,112.356 204.857,115.593 202.600 C 116.540 201.940,117.604 201.218,117.957 200.995 C 120.050 199.677,121.277 198.885,123.629 197.334 C 125.075 196.380,126.448 195.600,126.680 195.600 C 126.912 195.600,127.349 195.302,127.651 194.938 C 127.953 194.574,128.740 194.027,129.400 193.723 C 130.060 193.419,131.410 192.644,132.400 192.000 C 133.390 191.356,134.740 190.581,135.400 190.277 C 136.060 189.973,136.847 189.426,137.149 189.062 C 137.451 188.698,138.008 188.400,138.387 188.400 C 138.766 188.400,139.393 188.050,139.779 187.623 C 140.166 187.195,141.002 186.731,141.637 186.592 C 142.272 186.453,142.889 186.180,143.008 185.987 C 143.274 185.556,152.868 180.800,153.471 180.800 C 153.708 180.800,154.126 180.530,154.400 180.200 C 154.674 179.870,155.192 179.600,155.552 179.600 C 155.912 179.600,157.052 179.150,158.085 178.600 C 159.118 178.050,160.296 177.600,160.702 177.600 C 161.108 177.600,161.614 177.426,161.827 177.213 C 162.253 176.787,167.284 174.996,169.800 174.375 C 170.680 174.158,172.266 173.615,173.325 173.168 C 174.510 172.668,175.893 172.403,176.925 172.478 L 178.600 172.600 178.400 174.800 C 178.031 178.860,178.296 199.769,178.753 202.600 C 179.001 204.140,179.381 208.793,179.596 212.941 C 179.812 217.089,180.177 222.009,180.409 223.875 C 181.046 228.997,180.941 241.156,180.223 245.400 C 179.888 247.380,179.611 249.623,179.607 250.385 C 179.586 254.491,174.690 260.888,167.809 265.800 C 163.502 268.874,161.071 272.400,163.259 272.400 C 165.277 272.400,171.849 271.491,172.252 271.156 C 172.503 270.949,174.123 270.527,175.854 270.219 C 177.584 269.911,179.669 269.375,180.487 269.029 C 181.305 268.683,182.539 268.400,183.229 268.400 C 184.775 268.400,189.219 267.278,189.899 266.716 C 190.295 266.389,190.419 245.423,190.499 165.252 L 190.600 64.200 213.800 64.000 C 226.560 63.890,237.211 63.663,237.468 63.496 C 238.287 62.964,239.526 57.928,239.783 54.085 C 240.221 47.529,240.783 47.195,248.737 48.760 M347.195 83.209 C 346.676 84.178,346.443 246.585,346.944 258.100 C 347.288 266.025,347.679 267.815,348.209 263.900 C 348.366 262.745,348.736 261.326,349.033 260.748 C 349.329 260.169,349.766 257.649,350.003 255.148 C 350.241 252.646,350.615 249.700,350.834 248.600 C 351.054 247.500,351.415 244.710,351.636 242.400 C 351.857 240.090,352.380 236.580,352.799 234.600 C 353.217 232.620,353.654 229.380,353.769 227.400 C 353.884 225.420,354.244 222.915,354.569 221.834 C 354.895 220.753,355.274 218.143,355.412 216.034 C 355.550 213.925,355.998 210.670,356.408 208.800 C 356.818 206.930,357.255 203.832,357.378 201.915 C 357.501 199.998,357.866 197.419,358.187 196.184 C 358.509 194.948,358.958 191.806,359.184 189.201 C 359.410 186.596,359.768 184.011,359.979 183.455 C 360.190 182.899,360.554 180.245,360.788 177.557 C 361.021 174.868,361.464 171.663,361.773 170.434 C 362.081 169.206,362.455 166.670,362.603 164.800 C 362.752 162.930,363.216 159.600,363.635 157.400 C 364.055 155.200,364.400 152.230,364.404 150.800 C 364.407 149.370,364.676 147.210,365.002 146.000 C 365.328 144.790,365.788 141.730,366.023 139.200 C 366.258 136.670,366.712 133.250,367.032 131.600 C 367.352 129.950,367.783 126.440,367.989 123.800 C 368.196 121.160,368.557 118.370,368.792 117.600 C 369.027 116.830,369.404 113.770,369.630 110.800 C 369.856 107.830,370.301 104.265,370.620 102.877 C 370.938 101.490,371.294 98.520,371.411 96.277 C 371.528 94.035,371.826 90.992,372.073 89.515 C 372.599 86.375,372.239 85.602,370.251 85.597 C 369.563 85.595,366.844 85.145,364.209 84.597 C 361.574 84.049,358.334 83.599,357.009 83.598 C 355.684 83.597,353.970 83.434,353.200 83.237 C 349.937 82.401,347.634 82.390,347.195 83.209 M281.113 152.006 C 282.355 152.443,283.882 152.800,284.504 152.800 C 285.127 152.800,286.482 153.250,287.515 153.800 C 288.548 154.350,289.686 154.800,290.043 154.800 C 290.400 154.800,291.136 155.149,291.678 155.575 C 292.220 156.002,293.144 156.471,293.732 156.619 C 294.319 156.766,294.800 157.019,294.800 157.180 C 294.800 157.342,295.430 157.813,296.200 158.228 C 296.970 158.643,297.600 159.109,297.600 159.264 C 297.600 159.419,297.966 159.662,298.413 159.804 C 298.860 159.946,299.715 160.518,300.313 161.075 C 300.911 161.632,301.850 162.476,302.400 162.951 C 303.434 163.844,307.095 168.113,307.800 169.248 C 308.020 169.602,308.875 170.910,309.700 172.154 C 310.525 173.398,311.206 174.637,311.212 174.908 C 311.219 175.178,311.668 176.120,312.210 177.000 C 312.752 177.880,313.197 178.909,313.198 179.288 C 313.199 179.666,313.545 180.656,313.966 181.488 C 314.388 182.319,314.858 183.972,315.012 185.161 C 315.166 186.350,315.555 187.952,315.877 188.723 C 316.706 190.707,316.705 205.884,315.876 208.205 C 315.560 209.088,315.172 210.618,315.013 211.605 C 314.853 212.592,314.393 214.120,313.989 215.000 C 313.585 215.880,313.152 217.082,313.027 217.672 C 312.901 218.262,312.538 219.005,312.219 219.324 C 311.900 219.643,311.524 220.362,311.384 220.922 C 311.243 221.483,310.784 222.252,310.364 222.633 C 309.944 223.013,309.600 223.557,309.600 223.841 C 309.600 225.443,299.246 235.855,296.953 236.560 C 296.487 236.703,295.784 237.176,295.391 237.610 C 294.998 238.045,294.368 238.400,293.992 238.400 C 293.616 238.400,292.864 238.749,292.322 239.175 C 291.780 239.602,290.811 240.076,290.168 240.230 C 289.526 240.384,288.750 240.710,288.444 240.955 C 288.139 241.200,286.789 241.692,285.444 242.050 C 284.100 242.407,282.460 242.891,281.800 243.124 C 276.174 245.114,260.401 245.117,254.600 243.129 C 253.940 242.903,252.484 242.490,251.364 242.210 C 250.243 241.930,248.893 241.429,248.364 241.095 C 247.834 240.762,246.725 240.275,245.900 240.014 C 245.075 239.752,244.400 239.399,244.400 239.230 C 244.400 239.060,243.725 238.617,242.900 238.245 C 240.903 237.344,239.215 236.358,238.018 235.392 C 235.706 233.528,229.200 226.744,229.200 226.197 C 229.200 225.869,229.041 225.600,228.846 225.600 C 228.651 225.600,228.173 224.929,227.784 224.110 C 227.395 223.290,226.835 222.378,226.539 222.082 C 226.243 221.786,225.886 221.062,225.745 220.472 C 225.605 219.882,225.308 219.169,225.085 218.887 C 223.379 216.724,220.827 204.542,220.808 198.470 C 220.797 195.076,222.296 184.528,223.023 182.881 C 223.343 182.156,223.789 180.743,224.013 179.742 C 224.237 178.741,224.686 177.657,225.010 177.332 C 225.335 177.008,225.600 176.431,225.600 176.049 C 225.600 175.668,226.050 174.745,226.600 174.000 C 227.150 173.255,227.600 172.481,227.600 172.280 C 227.600 172.080,228.048 171.350,228.596 170.658 C 229.145 169.966,229.856 169.040,230.178 168.600 C 231.957 166.167,234.082 163.945,236.316 162.184 C 237.700 161.093,239.346 159.795,239.974 159.300 C 240.602 158.805,241.280 158.400,241.480 158.400 C 241.681 158.400,242.455 157.950,243.200 157.400 C 243.945 156.850,244.835 156.396,245.178 156.391 C 245.520 156.386,246.250 156.030,246.800 155.600 C 247.350 155.170,248.178 154.814,248.640 154.809 C 249.103 154.804,250.327 154.350,251.362 153.800 C 252.396 153.250,253.857 152.800,254.607 152.800 C 255.358 152.800,256.833 152.508,257.885 152.150 C 262.471 150.593,276.840 150.504,281.113 152.006 M276.600 179.975 C 272.731 181.036,266.866 185.752,266.787 187.863 C 266.781 188.048,266.332 189.100,265.791 190.200 C 265.250 191.300,264.806 192.477,264.804 192.815 C 264.802 193.154,264.440 194.137,264.000 195.000 C 263.560 195.863,263.200 196.952,263.200 197.421 C 263.200 200.068,260.082 204.307,257.872 204.666 C 252.038 205.613,248.080 199.475,251.522 194.819 C 252.005 194.167,252.400 193.447,252.400 193.220 C 252.400 192.994,253.547 192.249,254.948 191.566 L 257.496 190.324 257.714 187.915 C 258.347 180.934,257.137 179.298,252.474 180.831 C 249.304 181.874,249.775 181.512,243.974 187.347 C 241.429 189.906,239.191 192.000,239.000 192.000 C 238.809 192.000,237.921 192.332,237.026 192.738 C 236.132 193.144,234.905 193.680,234.300 193.930 L 233.200 194.383 233.200 198.597 L 233.200 202.812 234.500 203.604 C 235.345 204.120,236.513 204.398,237.838 204.399 C 240.155 204.400,240.658 204.797,241.897 207.600 C 245.021 214.665,253.398 219.002,260.098 217.023 C 262.428 216.335,268.400 211.394,268.400 210.154 C 268.400 209.881,268.662 209.395,268.982 209.075 C 269.672 208.385,270.887 206.421,271.998 204.200 C 272.439 203.320,273.338 201.700,273.996 200.600 C 274.655 199.500,275.358 198.228,275.559 197.774 C 278.586 190.926,283.069 190.267,286.265 196.200 C 286.621 196.860,287.064 197.499,287.250 197.620 C 289.040 198.784,286.452 203.346,283.239 204.692 C 280.436 205.866,278.901 214.044,281.077 216.219 C 283.447 218.590,289.057 215.600,294.211 209.220 C 295.465 207.669,296.641 206.400,296.824 206.400 C 297.008 206.400,297.644 205.950,298.238 205.400 C 299.078 204.621,299.743 204.400,301.244 204.400 C 303.758 204.400,304.000 203.914,304.000 198.859 C 304.000 193.318,303.358 192.400,299.486 192.400 C 297.525 192.400,296.121 191.221,295.062 188.686 C 292.558 182.694,283.046 178.205,276.600 179.975 " stroke="none" fill="#fbfbfb" fill-rule="evenodd"></path></g></svg>